<svg width="47" height="44" viewBox="0 0 47 44" fill="none" xmlns="http://www.w3.org/2000/svg">
<path d="M45.4684 38.0408L36.4917 29.4737C36.0866 29.087 35.5373 28.8722 34.9611 28.8722H33.4935C35.9785 25.8389 37.4551 22.0236 37.4551 17.8733C37.4551 8 29.0727 0 18.7276 0C8.38238 0 0 8 0 17.8733C0 27.7465 8.38238 35.7465 18.7276 35.7465C23.0763 35.7465 27.0739 34.3373 30.2522 31.9656V33.3663C30.2522 33.9162 30.4773 34.4404 30.8825 34.8271L39.8591 43.3942C40.7054 44.2019 42.074 44.2019 42.9113 43.3942L45.4594 40.9624C46.3057 40.1547 46.3057 38.8486 45.4684 38.0408ZM18.7276 28.8722C12.362 28.8722 7.20291 23.957 7.20291 17.8733C7.20291 11.7981 12.353 6.87433 18.7276 6.87433C25.0931 6.87433 30.2522 11.7895 30.2522 17.8733C30.2522 23.9484 25.1021 28.8722 18.7276 28.8722Z" fill="#2A75BB"/>
</svg>
